<?xml version="1.0" encoding="UTF-8" standalone="no"?>
<!-- Created with Inkscape (http://www.inkscape.org/) -->

<svg
   xmlns:dc="http://purl.org/dc/elements/1.1/"
   xmlns:cc="http://creativecommons.org/ns#"
   xmlns:rdf="http://www.w3.org/1999/02/22-rdf-syntax-ns#"
   xmlns:svg="http://www.w3.org/2000/svg"
   xmlns="http://www.w3.org/2000/svg"
   xmlns:sodipodi="http://sodipodi.sourceforge.net/DTD/sodipodi-0.dtd"
   xmlns:inkscape="http://www.inkscape.org/namespaces/inkscape"
   width="182.87955"
   height="208"
   id="svg3115"
   version="1.1"
   inkscape:version="0.48.5 r10040"
   sodipodi:docname="pivotal2.svg">
  <defs
     id="defs3117" />
  <sodipodi:namedview
     id="base"
     pagecolor="#ffffff"
     bordercolor="#666666"
     borderopacity="1.0"
     inkscape:pageopacity="0.0"
     inkscape:pageshadow="2"
     inkscape:zoom="1.979899"
     inkscape:cx="-43.938598"
     inkscape:cy="58.921508"
     inkscape:document-units="px"
     inkscape:current-layer="layer1"
     showgrid="false"
     fit-margin-top="1"
     fit-margin-left="1"
     fit-margin-right="1"
     fit-margin-bottom="1"
     inkscape:window-width="1914"
     inkscape:window-height="998"
     inkscape:window-x="0"
     inkscape:window-y="27"
     inkscape:window-maximized="1" />
  <metadata
     id="metadata3120">
    <rdf:RDF>
      <cc:Work
         rdf:about="">
        <dc:format>image/svg+xml</dc:format>
        <dc:type
           rdf:resource="http://purl.org/dc/dcmitype/StillImage" />
        <dc:title />
      </cc:Work>
    </rdf:RDF>
  </metadata>
  <g
     inkscape:label="Layer 1"
     inkscape:groupmode="layer"
     id="layer1"
     transform="translate(-260.06783,-228.92819)">
    <path
       inkscape:connector-curvature="0"
       id="path3261"
       d="m 338.11425,411.17819 c -7.81532,-13.6125 -14.17341,-25.425 -14.12908,-26.25 0.0443,-0.825 3.79318,-7.8 8.33078,-15.5 6.55888,-11.12998 8.64401,-13.93437 10.17131,-13.67986 1.05661,0.17608 4.80187,0.4854 8.32278,0.68738 3.52092,0.20198 6.97686,0.95791 7.67987,1.67986 2.97745,3.05761 32.61858,56.01143 31.80227,56.81468 -1.5366,1.51202 -35.77754,20.99794 -36.89788,20.99794 -0.58871,0 -7.46473,-11.1375 -15.28005,-24.75 z m -56.70587,-13.7554 c -13.03606,-7.5746 -17.98444,-10.95637 -17.94358,-12.26282 0.051,-1.62962 22.07761,-40.83429 26.67703,-47.48178 l 1.90274,-2.75 17.35435,0 17.35436,0 1.18209,3.75 c 0.65015,2.0625 2.29997,5.48817 3.66625,7.61259 l 2.48415,3.86259 -16.43175,28.5851 c -9.03747,15.7218 -16.83988,28.71067 -17.3387,28.86416 -0.49882,0.15348 -9.00694,-4.42744 -18.90694,-10.17984 z m 99.17289,-18.2446 c -4.88446,-7.78707 -14.67289,-25.18187 -14.67289,-26.07487 0,-0.51163 0.72626,-1.53298 1.61391,-2.26966 0.88764,-0.73669 2.95899,-3.72279 4.60299,-6.6358 l 2.98909,-5.29637 33.147,0.26335 33.14701,0.26335 0.2695,21.75 0.2695,21.75 -29.50695,0 -29.50696,0 -2.3522,-3.75 z m -4.40535,-49.5 c -0.53755,-0.6875 -1.47618,-2.7324 -2.08585,-4.54423 -0.60967,-1.81182 -2.02496,-4.58129 -3.14509,-6.15437 -1.12013,-1.57308 -2.02828,-3.24067 -2.01812,-3.70577 0.0349,-1.59654 31.70638,-55.76949 33.12981,-56.66737 1.01067,-0.63752 6.58336,2.07605 19.22643,9.36214 9.7918,5.64291 18.00712,10.79107 18.25627,11.44035 0.48632,1.26734 -27.07592,49.52743 -28.98652,50.75394 -2.09148,1.34261 -33.29215,0.90271 -34.37693,-0.48469 z m -114.8199,-4.02584 c -0.26927,-0.70171 -0.36764,-10.71421 -0.21861,-22.25 l 0.27097,-20.97416 29.14852,-0.26494 29.14851,-0.26495 8.60149,14.85463 c 4.73081,8.17004 8.60148,15.20973 8.60148,15.64374 0,0.43402 -1.4625,2.45682 -3.25,4.49512 -1.7875,2.0383 -4.01657,5.13034 -4.95349,6.8712 l -1.70349,3.1652 -32.57789,0 c -25.49173,0 -32.68439,-0.27751 -33.06748,-1.27584 z m 90.05607,-16.634 -6.99628,-0.59016 -16.34576,-28.28664 c -13.02294,-22.53645 -16.10958,-28.5712 -15.18396,-29.6865 1.65498,-1.99413 34.24709,-20.52686 36.09904,-20.52686 1.52159,0 29.96232,47.90114 29.88765,50.33812 -0.0196,0.63903 -3.73384,7.46188 -8.25391,15.16188 -6.06287,10.32817 -8.74184,14.02365 -10.2144,14.09016 -1.09785,0.0496 -5.14442,-0.17541 -8.99238,-0.5 z"
       style="fill:#ed7f02;fill-opacity:1" />
  </g>
</svg>
